Poster: 
http://imgr.us/images/q7sov6he73pgdbmlzafv.jpg


Info:

Format : AVI
Format/Info : Audio Video Interleave
File size : 695 MiB
Duration : 2h 30mn
Overall bit rate : 646 Kbps
Writing application : VirtualDubMod 1.5.10.2 (build 2542/release)
Writing library : VirtualDubMod build 2542/release
Copyright : Vishaal @ DST

Video
ID : 0
Format : MPEG-4 Visual
Format profile : Advanced Simple@L5
Format settings, BVOP : 1
Format settings, QPel : No
Format settings, GMC : No warppoints
Format settings, Matrix : Default (H.263)
Codec ID : XVID
Codec ID/Hint : XviD
Duration : 2h 30mn
Bit rate : 605 Kbps
Width : 640 pixels
Height : 272 pixels
Display aspect ratio : 2.35:1
Frame rate : 25.000 fps
Color space : YUV
Chroma subsampling : 4:2:0
Bit depth : 8 bits
Scan type : Progressive
Compression mode : Lossy
Bits/(Pixel*Frame) : 0.139
Stream size : 651 MiB (94%)
Writing library : XviD 1.2.1 (UTC 2008-12-04)

Audio
ID : 1
Format : MPEG Audio
Format version : Version 2
Format profile : Layer 3
Mode : Joint stereo
Mode extension : MS Stereo
Codec ID : 55
Codec ID/Hint : MP3
Duration : 2h 30mn
Bit rate mode : Constant
Bit rate : 32.0 Kbps
Channel(s) : 2 channels
Sampling rate : 16.0 KHz
Compression mode : Lossy
Stream size : 34.4 MiB (5%)
Alignment : Aligned on interleaves
Interleave, duration : 40 ms (1.00 video frame)
Interleave, preload duration : 504 ms


Screens: 
http://imgr.us/images/2h6jf293tqte3hrxdoak.png 
http://imgr.us/images/2nejdxh0wu5oslzbbl9v.png 
http://imgr.us/images/a0nxyo9id589nvzfsg8r.png 
http://imgr.us/images/cub7rxkohn9gkis63y44.png
